%TF.GenerationSoftware,KiCad,Pcbnew,(7.0.0)*%
%TF.CreationDate,2023-05-29T22:26:37+03:00*%
%TF.ProjectId,Africa PCB,41667269-6361-4205-9043-422e6b696361,rev?*%
%TF.SameCoordinates,Original*%
%TF.FileFunction,Drillmap*%
%TF.FilePolarity,Positive*%
%FSLAX45Y45*%
G04 Gerber Fmt 4.5, Leading zero omitted, Abs format (unit mm)*
G04 Created by KiCad (PCBNEW (7.0.0)) date 2023-05-29 22:26:37*
%MOMM*%
%LPD*%
G01*
G04 APERTURE LIST*
%ADD10C,0.200000*%
G04 APERTURE END LIST*
D10*
X4675136Y-2837500D02*
G75*
G03*
X4675136Y-2837500I-945136J0D01*
G01*
X2963422Y-1413739D02*
X19452500Y-1415000D01*
X2963422Y-1413739D02*
G75*
G03*
X2365354Y-2006260I-5522J-592521D01*
G01*
X20045024Y-2013068D02*
G75*
G03*
X19452500Y-1415000I-592524J5518D01*
G01*
X2366240Y-17901578D02*
X2365354Y-2006260D01*
X19454979Y-18497500D02*
X2958760Y-18499646D01*
X2366239Y-17901578D02*
G75*
G03*
X2958760Y-18499646I592521J-5522D01*
G01*
X19454979Y-18497501D02*
G75*
G03*
X20053047Y-17904979I5521J592521D01*
G01*
X20045021Y-2013068D02*
X20053047Y-17904979D01*
X2602973Y-18803122D02*
X2602973Y-18603122D01*
X2602973Y-18603122D02*
X2650592Y-18603122D01*
X2650592Y-18603122D02*
X2679163Y-18612646D01*
X2679163Y-18612646D02*
X2698211Y-18631694D01*
X2698211Y-18631694D02*
X2707735Y-18650742D01*
X2707735Y-18650742D02*
X2717258Y-18688837D01*
X2717258Y-18688837D02*
X2717258Y-18717408D01*
X2717258Y-18717408D02*
X2707735Y-18755503D01*
X2707735Y-18755503D02*
X2698211Y-18774551D01*
X2698211Y-18774551D02*
X2679163Y-18793599D01*
X2679163Y-18793599D02*
X2650592Y-18803122D01*
X2650592Y-18803122D02*
X2602973Y-18803122D01*
X2802973Y-18803122D02*
X2802973Y-18669789D01*
X2802973Y-18707884D02*
X2812496Y-18688837D01*
X2812496Y-18688837D02*
X2822020Y-18679313D01*
X2822020Y-18679313D02*
X2841068Y-18669789D01*
X2841068Y-18669789D02*
X2860116Y-18669789D01*
X2926782Y-18803122D02*
X2926782Y-18669789D01*
X2926782Y-18603122D02*
X2917258Y-18612646D01*
X2917258Y-18612646D02*
X2926782Y-18622170D01*
X2926782Y-18622170D02*
X2936306Y-18612646D01*
X2936306Y-18612646D02*
X2926782Y-18603122D01*
X2926782Y-18603122D02*
X2926782Y-18622170D01*
X3050592Y-18803122D02*
X3031544Y-18793599D01*
X3031544Y-18793599D02*
X3022020Y-18774551D01*
X3022020Y-18774551D02*
X3022020Y-18603122D01*
X3155354Y-18803122D02*
X3136306Y-18793599D01*
X3136306Y-18793599D02*
X3126782Y-18774551D01*
X3126782Y-18774551D02*
X3126782Y-18603122D01*
X3351544Y-18803122D02*
X3351544Y-18603122D01*
X3351544Y-18603122D02*
X3418211Y-18745980D01*
X3418211Y-18745980D02*
X3484877Y-18603122D01*
X3484877Y-18603122D02*
X3484877Y-18803122D01*
X3665830Y-18803122D02*
X3665830Y-18698361D01*
X3665830Y-18698361D02*
X3656306Y-18679313D01*
X3656306Y-18679313D02*
X3637258Y-18669789D01*
X3637258Y-18669789D02*
X3599163Y-18669789D01*
X3599163Y-18669789D02*
X3580115Y-18679313D01*
X3665830Y-18793599D02*
X3646782Y-18803122D01*
X3646782Y-18803122D02*
X3599163Y-18803122D01*
X3599163Y-18803122D02*
X3580115Y-18793599D01*
X3580115Y-18793599D02*
X3570592Y-18774551D01*
X3570592Y-18774551D02*
X3570592Y-18755503D01*
X3570592Y-18755503D02*
X3580115Y-18736456D01*
X3580115Y-18736456D02*
X3599163Y-18726932D01*
X3599163Y-18726932D02*
X3646782Y-18726932D01*
X3646782Y-18726932D02*
X3665830Y-18717408D01*
X3761068Y-18669789D02*
X3761068Y-18869789D01*
X3761068Y-18679313D02*
X3780115Y-18669789D01*
X3780115Y-18669789D02*
X3818211Y-18669789D01*
X3818211Y-18669789D02*
X3837258Y-18679313D01*
X3837258Y-18679313D02*
X3846782Y-18688837D01*
X3846782Y-18688837D02*
X3856306Y-18707884D01*
X3856306Y-18707884D02*
X3856306Y-18765027D01*
X3856306Y-18765027D02*
X3846782Y-18784075D01*
X3846782Y-18784075D02*
X3837258Y-18793599D01*
X3837258Y-18793599D02*
X3818211Y-18803122D01*
X3818211Y-18803122D02*
X3780115Y-18803122D01*
X3780115Y-18803122D02*
X3761068Y-18793599D01*
X3942020Y-18784075D02*
X3951544Y-18793599D01*
X3951544Y-18793599D02*
X3942020Y-18803122D01*
X3942020Y-18803122D02*
X3932496Y-18793599D01*
X3932496Y-18793599D02*
X3942020Y-18784075D01*
X3942020Y-18784075D02*
X3942020Y-18803122D01*
X3942020Y-18679313D02*
X3951544Y-18688837D01*
X3951544Y-18688837D02*
X3942020Y-18698361D01*
X3942020Y-18698361D02*
X3932496Y-18688837D01*
X3932496Y-18688837D02*
X3942020Y-18679313D01*
X3942020Y-18679313D02*
X3942020Y-18698361D01*
M02*
